<?xml version="1.0"?>
<svg width="90" height="102" xmlns="http://www.w3.org/2000/svg" xmlns:svg="http://www.w3.org/2000/svg">
 <g>
  <title>Layer 1</title>
  <path fill="#ffffff" id="svg_1" d="m84.615005,36.485001l-2.449005,0l0,-11.819c0,-0.074001 -0.012001,-0.147999 -0.020996,-0.223c-0.004005,-0.469002 -0.153999,-0.93 -0.474998,-1.295002l-19.666,-22.463999c-0.006004,-0.006 -0.012001,-0.008 -0.016006,-0.014c-0.117001,-0.131001 -0.253998,-0.240001 -0.397995,-0.334001c-0.042999,-0.028999 -0.086002,-0.052999 -0.131004,-0.078c-0.125,-0.068 -0.257996,-0.125 -0.394997,-0.165999c-0.037006,-0.01 -0.07,-0.025001 -0.107006,-0.035c-0.147995,-0.035001 -0.302998,-0.057 -0.458996,-0.057l-48.332001,0c-2.206999,0 -4,1.795 -4,4l0,32.484001l-2.448999,0c-3.157,0 -5.717001,2.558998 -5.717001,5.716999l0,29.73c0,3.155998 2.560001,5.717003 5.717001,5.717003l2.448999,0l0,20.351997c0,2.205002 1.793001,4 4,4l66,0c2.205002,0 4,-1.794998 4,-4l0,-20.350998l2.449005,0c3.156998,0 5.716995,-2.561005 5.716995,-5.717003l0,-29.73c0,-3.159 -2.559998,-5.716999 -5.716995,-5.716999zm-72.449005,-32.485001l46.332001,0l0,20.465c0,1.105 0.896004,2 2,2l17.667999,0l0,10.02l-66,0l0,-32.485001zm41.124001,52.446999c0,8.887001 -5.389,14.277 -13.311996,14.277c-8.043005,0 -12.749002,-6.071999 -12.749002,-13.794998c0,-8.125 5.187998,-14.197002 13.190996,-14.197002c8.326,0 12.870003,6.234001 12.870003,13.715zm-43.841,13.834l0,-27.105999l6.152998,0l0,21.959003l10.779003,0l0,5.145996l-16.932001,0l0,0.000999zm68.716999,26.635002l-66,0l0,-19.266998l66,0l0,19.266998zm1.793999,-27.881004c-1.890999,0.643005 -5.469994,1.527 -9.048996,1.527c-4.945999,0 -8.526001,-1.245995 -11.020004,-3.657997c-2.493,-2.332001 -3.861,-5.873001 -3.82,-9.853996c0.040001,-9.010002 6.595001,-14.158005 15.484001,-14.158005c3.499001,0 6.193001,0.686001 7.521004,1.328003l-1.287003,4.905998c-1.487999,-0.643002 -3.337997,-1.166 -6.313995,-1.166c-5.107002,0 -8.969002,2.896 -8.969002,8.767998c0,5.590004 3.499001,8.887001 8.526001,8.887001c1.407997,0 2.533997,-0.157997 3.015999,-0.400002l0,-5.671997l-4.181999,0l0,-4.784996l10.093994,0l0,14.276993z"/>
  <path fill="#ffffff" id="svg_2" d="m33.704002,56.807999c0,5.308998 2.493996,9.049004 6.595001,9.049004c4.142994,0 6.515999,-3.941002 6.515999,-9.209c0,-4.865002 -2.333,-9.051003 -6.556004,-9.051003c-4.141994,0 -6.554996,3.943001 -6.554996,9.210999z"/>
 </g>
</svg>