<?xml version="1.0"?>
<svg width="90" height="102" xmlns="http://www.w3.org/2000/svg" xmlns:svg="http://www.w3.org/2000/svg">
 <g>
  <title>Layer 1</title>
  <path d="m84.615013,36.485001l-2.449013,0l0,-11.819c0,-0.074001 -0.012001,-0.148001 -0.021004,-0.223c-0.003998,-0.469 -0.153984,-0.93 -0.474983,-1.295l-19.666004,-22.464001c-0.006008,-0.006 -0.012009,-0.008 -0.01601,-0.014c-0.117001,-0.131 -0.253998,-0.24 -0.397999,-0.334c-0.042992,-0.029 -0.085999,-0.053 -0.131001,-0.078c-0.125,-0.068 -0.257999,-0.125 -0.395,-0.166c-0.036999,-0.01 -0.07,-0.025 -0.106998,-0.035c-0.148003,-0.035 -0.303001,-0.057 -0.459,-0.057l-48.332001,0c-2.207001,0 -4,1.795 -4,4l0,32.484001l-2.449,0c-3.157,0 -5.717,2.558998 -5.717,5.716999l0,29.73c0,3.155998 2.56,5.717003 5.717,5.717003l2.449,0l0,20.351997c0,2.205002 1.792999,4 4,4l66,0c2.205002,0 4,-1.794998 4,-4l0,-20.350998l2.449013,0c3.15699,0 5.716988,-2.561005 5.716988,-5.717003l0,-29.73c0,-3.159 -2.559998,-5.716999 -5.716988,-5.716999zm-72.449013,-32.485001l46.332001,0l0,20.465c0,1.105 0.896008,2 2,2l17.667999,0l0,10.02l-66,0l0,-32.485001zm41.124001,52.446999c0,8.887001 -5.389,14.277 -13.312,14.277c-8.043001,0 -12.749001,-6.071999 -12.749001,-13.794998c0,-8.125 5.188,-14.197002 13.190998,-14.197002c8.326,0 12.870003,6.234001 12.870003,13.715zm-43.841001,13.834l0,-27.105999l6.153,0l0,21.959003l10.779,0l0,5.145996l-16.932,0l0,0.000999zm68.717,26.635002l-66,0l0,-19.266998l66,0l0,19.266998zm1.793999,-27.880997c-1.890999,0.642998 -5.470001,1.526993 -9.048996,1.526993c-4.946007,0 -8.526005,-1.245995 -11.020004,-3.657997c-2.493,-2.332001 -3.861,-5.873001 -3.82,-9.854c0.040001,-9.009998 6.595001,-14.158001 15.484001,-14.158001c3.499001,0 6.193001,0.686001 7.520996,1.328003l-1.286995,4.905998c-1.487999,-0.642998 -3.338005,-1.166 -6.314003,-1.166c-5.107002,0 -8.968998,2.896 -8.968998,8.768002c0,5.59 3.498997,8.886997 8.525997,8.886997c1.408005,0 2.534004,-0.157997 3.015999,-0.400002l0,-5.671997l-4.181999,0l0,-4.785l10.094002,0l0,14.277004z" id="svg_1" fill="#5b5b5b"/>
  <path d="m33.703999,56.807999c0,5.309002 2.494003,9.049004 6.595001,9.049004c4.143002,0 6.515999,-3.941002 6.515999,-9.209003c0,-4.864998 -2.333,-9.050999 -6.556,-9.050999c-4.141998,0 -6.555,3.943001 -6.555,9.210999z" id="svg_2" fill="#5b5b5b"/>
 </g>
</svg>